<svg width="203" height="35" viewBox="0 0 203 35" fill="none" xmlns="http://www.w3.org/2000/svg">
<path d="M68.5778 16.8068L60.3557 27.1025H57.2935V10.2243H61.0308V20.5683L69.2047 10.2243H72.3151V27.1025H68.5778V16.8068ZM88.1789 16.8068L79.9568 27.1025H76.8946V10.2243H80.6319V20.5683L88.8058 10.2243H91.9163V27.1025H88.1789V16.8068ZM109.251 21.5327L111.469 23.9198C110.746 25.0289 109.717 25.8889 108.383 26.4997C107.065 27.0945 105.698 27.3919 104.284 27.3919C101.664 27.3919 99.566 26.5801 97.9907 24.9566C96.4315 23.3331 95.6519 21.2353 95.6519 18.6634C95.6519 16.1558 96.4878 14.0742 98.1595 12.4185C99.8312 10.7628 101.905 9.93497 104.38 9.93497C105.731 9.93497 107.041 10.2082 108.311 10.7548C109.597 11.3013 110.561 12.097 111.204 13.1418L108.672 15.4566C108.206 14.8779 107.603 14.4198 106.864 14.0822C106.14 13.7285 105.401 13.5517 104.646 13.5517C103.118 13.5517 101.881 14.0259 100.932 14.9743C100 15.9066 99.5339 17.1363 99.5339 18.6634C99.5339 20.1423 100.008 21.3639 100.956 22.3284C101.905 23.2929 103.118 23.7751 104.597 23.7751C106.51 23.7751 108.061 23.0277 109.251 21.5327ZM118.565 13.7205H113.164V10.2243H127.727V13.7205H122.302V27.1025H118.565V13.7205ZM134.467 21.798V27.1025H130.73V10.2243H137.722C139.089 10.2243 140.286 10.4011 141.315 10.7548C142.344 11.1084 143.196 11.7353 143.871 12.6355C144.546 13.5196 144.883 14.6528 144.883 16.0352C144.883 17.3694 144.53 18.4866 143.822 19.3868C143.115 20.2709 142.239 20.8978 141.194 21.2675C140.166 21.6211 139.008 21.798 137.722 21.798H134.467ZM137.819 13.7205H134.467V18.3017H137.674C139.892 18.3017 141.001 17.5382 141.001 16.0111C141.001 14.4841 139.94 13.7205 137.819 13.7205ZM148.758 27.1025H144.9L152.302 10.2243H155.075L162.477 27.1025H158.571L157.197 23.968H150.132L148.758 27.1025ZM155.822 20.8094L153.652 15.77L151.434 20.8094H155.822ZM180.136 27.1025H176.398V13.8411H171.118L171.021 15.7941C170.861 19.4913 170.443 22.232 169.767 24.0162C169.333 25.1897 168.739 26.0095 167.983 26.4756C167.244 26.9418 166.231 27.1749 164.945 27.1749C164.608 27.1749 164.286 27.1508 163.981 27.1025V23.6304C164.27 23.6626 164.471 23.6787 164.583 23.6787C165.435 23.6787 166.054 23.2848 166.44 22.4972C166.681 22.015 166.898 21.0907 167.091 19.7243C167.284 18.3419 167.405 15.8102 167.453 12.1291L167.477 10.2243H180.136V27.1025ZM191.602 19.3144H188.468V23.6063H191.53C193.748 23.6063 194.857 22.8749 194.857 21.4122C194.857 20.0137 193.772 19.3144 191.602 19.3144ZM184.706 10.2243H188.468V15.8182H191.65C192.647 15.8182 193.547 15.9147 194.351 16.1076C195.171 16.2844 195.918 16.5818 196.593 16.9997C197.268 17.4016 197.791 17.9803 198.161 18.7358C198.546 19.4752 198.739 20.3673 198.739 21.4122C198.739 22.4409 198.538 23.3411 198.136 24.1127C197.751 24.8682 197.204 25.4549 196.497 25.8728C195.79 26.2908 195.018 26.6042 194.182 26.8132C193.362 27.0061 192.454 27.1025 191.458 27.1025H184.706V10.2243Z" fill="#1D1700"/>
<path d="M68.5778 16.8068L60.3557 27.1025H57.2935V10.2243H61.0308V20.5683L69.2047 10.2243H72.3151V27.1025H68.5778V16.8068ZM88.1789 16.8068L79.9568 27.1025H76.8946V10.2243H80.6319V20.5683L88.8058 10.2243H91.9163V27.1025H88.1789V16.8068ZM109.251 21.5327L111.469 23.9198C110.746 25.0289 109.717 25.8889 108.383 26.4997C107.065 27.0945 105.698 27.3919 104.284 27.3919C101.664 27.3919 99.566 26.5801 97.9907 24.9566C96.4315 23.3331 95.6519 21.2353 95.6519 18.6634C95.6519 16.1558 96.4878 14.0742 98.1595 12.4185C99.8312 10.7628 101.905 9.93497 104.38 9.93497C105.731 9.93497 107.041 10.2082 108.311 10.7548C109.597 11.3013 110.561 12.097 111.204 13.1418L108.672 15.4566C108.206 14.8779 107.603 14.4198 106.864 14.0822C106.14 13.7285 105.401 13.5517 104.646 13.5517C103.118 13.5517 101.881 14.0259 100.932 14.9743C100 15.9066 99.5339 17.1363 99.5339 18.6634C99.5339 20.1423 100.008 21.3639 100.956 22.3284C101.905 23.2929 103.118 23.7751 104.597 23.7751C106.51 23.7751 108.061 23.0277 109.251 21.5327ZM118.565 13.7205H113.164V10.2243H127.727V13.7205H122.302V27.1025H118.565V13.7205ZM134.467 21.798V27.1025H130.73V10.2243H137.722C139.089 10.2243 140.286 10.4011 141.315 10.7548C142.344 11.1084 143.196 11.7353 143.871 12.6355C144.546 13.5196 144.883 14.6528 144.883 16.0352C144.883 17.3694 144.53 18.4866 143.822 19.3868C143.115 20.2709 142.239 20.8978 141.194 21.2675C140.166 21.6211 139.008 21.798 137.722 21.798H134.467ZM137.819 13.7205H134.467V18.3017H137.674C139.892 18.3017 141.001 17.5382 141.001 16.0111C141.001 14.4841 139.94 13.7205 137.819 13.7205ZM148.758 27.1025H144.9L152.302 10.2243H155.075L162.477 27.1025H158.571L157.197 23.968H150.132L148.758 27.1025ZM155.822 20.8094L153.652 15.77L151.434 20.8094H155.822ZM180.136 27.1025H176.398V13.8411H171.118L171.021 15.7941C170.861 19.4913 170.443 22.232 169.767 24.0162C169.333 25.1897 168.739 26.0095 167.983 26.4756C167.244 26.9418 166.231 27.1749 164.945 27.1749C164.608 27.1749 164.286 27.1508 163.981 27.1025V23.6304C164.27 23.6626 164.471 23.6787 164.583 23.6787C165.435 23.6787 166.054 23.2848 166.44 22.4972C166.681 22.015 166.898 21.0907 167.091 19.7243C167.284 18.3419 167.405 15.8102 167.453 12.1291L167.477 10.2243H180.136V27.1025ZM191.602 19.3144H188.468V23.6063H191.53C193.748 23.6063 194.857 22.8749 194.857 21.4122C194.857 20.0137 193.772 19.3144 191.602 19.3144ZM184.706 10.2243H188.468V15.8182H191.65C192.647 15.8182 193.547 15.9147 194.351 16.1076C195.171 16.2844 195.918 16.5818 196.593 16.9997C197.268 17.4016 197.791 17.9803 198.161 18.7358C198.546 19.4752 198.739 20.3673 198.739 21.4122C198.739 22.4409 198.538 23.3411 198.136 24.1127C197.751 24.8682 197.204 25.4549 196.497 25.8728C195.79 26.2908 195.018 26.6042 194.182 26.8132C193.362 27.0061 192.454 27.1025 191.458 27.1025H184.706V10.2243Z" fill="black" fill-opacity="0.2"/>
<path d="M68.5776 16.8068L60.3555 27.1025H57.2933V10.2243H61.0307V20.5683L69.2045 10.2243H72.315V27.1025H68.5776V16.8068ZM88.1788 16.8068L79.9567 27.1025H76.8945V10.2243H80.6318V20.5683L88.8057 10.2243H91.9161V27.1025H88.1788V16.8068ZM109.251 21.5327L111.469 23.9198C110.746 25.0289 109.717 25.8889 108.383 26.4997C107.065 27.0945 105.698 27.3919 104.284 27.3919C101.664 27.3919 99.5659 26.5801 97.9906 24.9566C96.4314 23.3331 95.6518 21.2353 95.6518 18.6634C95.6518 16.1558 96.4876 14.0742 98.1594 12.4185C99.8311 10.7628 101.905 9.93497 104.38 9.93497C105.73 9.93497 107.041 10.2082 108.31 10.7548C109.596 11.3013 110.561 12.097 111.204 13.1418L108.672 15.4566C108.206 14.8779 107.603 14.4198 106.864 14.0822C106.14 13.7285 105.401 13.5517 104.645 13.5517C103.118 13.5517 101.881 14.0259 100.932 14.9743C99.9999 15.9066 99.5337 17.1363 99.5337 18.6634C99.5337 20.1423 100.008 21.3639 100.956 22.3284C101.905 23.2929 103.118 23.7751 104.597 23.7751C106.51 23.7751 108.061 23.0277 109.251 21.5327ZM118.565 13.7205H113.164V10.2243H127.727V13.7205H122.302V27.1025H118.565V13.7205ZM134.467 21.798V27.1025H130.73V10.2243H137.722C139.088 10.2243 140.286 10.4011 141.315 10.7548C142.343 11.1084 143.195 11.7353 143.871 12.6355C144.546 13.5196 144.883 14.6528 144.883 16.0352C144.883 17.3694 144.53 18.4866 143.822 19.3868C143.115 20.2709 142.239 20.8978 141.194 21.2675C140.165 21.6211 139.008 21.798 137.722 21.798H134.467ZM137.819 13.7205H134.467V18.3017H137.674C139.892 18.3017 141.001 17.5382 141.001 16.0111C141.001 14.4841 139.94 13.7205 137.819 13.7205ZM148.758 27.1025H144.9L152.302 10.2243H155.075L162.477 27.1025H158.571L157.197 23.968H150.132L148.758 27.1025ZM155.822 20.8094L153.652 15.77L151.434 20.8094H155.822ZM180.135 27.1025H176.398V13.8411H171.118L171.021 15.7941C170.86 19.4913 170.442 22.232 169.767 24.0162C169.333 25.1897 168.739 26.0095 167.983 26.4756C167.244 26.9418 166.231 27.1749 164.945 27.1749C164.607 27.1749 164.286 27.1508 163.981 27.1025V23.6304C164.27 23.6626 164.471 23.6787 164.583 23.6787C165.435 23.6787 166.054 23.2848 166.44 22.4972C166.681 22.015 166.898 21.0907 167.091 19.7243C167.284 18.3419 167.404 15.8102 167.453 12.1291L167.477 10.2243H180.135V27.1025ZM191.602 19.3144H188.468V23.6063H191.53C193.748 23.6063 194.857 22.8749 194.857 21.4122C194.857 20.0137 193.772 19.3144 191.602 19.3144ZM184.706 10.2243H188.468V15.8182H191.65C192.647 15.8182 193.547 15.9147 194.351 16.1076C195.171 16.2844 195.918 16.5818 196.593 16.9997C197.268 17.4016 197.791 17.9803 198.16 18.7358C198.546 19.4752 198.739 20.3673 198.739 21.4122C198.739 22.4409 198.538 23.3411 198.136 24.1127C197.751 24.8682 197.204 25.4549 196.497 25.8728C195.789 26.2908 195.018 26.6042 194.182 26.8132C193.362 27.0061 192.454 27.1025 191.457 27.1025H184.706V10.2243Z" fill="#1D1700"/>
<path d="M68.5776 16.8068L60.3555 27.1025H57.2933V10.2243H61.0307V20.5683L69.2045 10.2243H72.315V27.1025H68.5776V16.8068ZM88.1788 16.8068L79.9567 27.1025H76.8945V10.2243H80.6318V20.5683L88.8057 10.2243H91.9161V27.1025H88.1788V16.8068ZM109.251 21.5327L111.469 23.9198C110.746 25.0289 109.717 25.8889 108.383 26.4997C107.065 27.0945 105.698 27.3919 104.284 27.3919C101.664 27.3919 99.5659 26.5801 97.9906 24.9566C96.4314 23.3331 95.6518 21.2353 95.6518 18.6634C95.6518 16.1558 96.4876 14.0742 98.1594 12.4185C99.8311 10.7628 101.905 9.93497 104.38 9.93497C105.73 9.93497 107.041 10.2082 108.31 10.7548C109.596 11.3013 110.561 12.097 111.204 13.1418L108.672 15.4566C108.206 14.8779 107.603 14.4198 106.864 14.0822C106.14 13.7285 105.401 13.5517 104.645 13.5517C103.118 13.5517 101.881 14.0259 100.932 14.9743C99.9999 15.9066 99.5337 17.1363 99.5337 18.6634C99.5337 20.1423 100.008 21.3639 100.956 22.3284C101.905 23.2929 103.118 23.7751 104.597 23.7751C106.51 23.7751 108.061 23.0277 109.251 21.5327ZM118.565 13.7205H113.164V10.2243H127.727V13.7205H122.302V27.1025H118.565V13.7205ZM134.467 21.798V27.1025H130.73V10.2243H137.722C139.088 10.2243 140.286 10.4011 141.315 10.7548C142.343 11.1084 143.195 11.7353 143.871 12.6355C144.546 13.5196 144.883 14.6528 144.883 16.0352C144.883 17.3694 144.53 18.4866 143.822 19.3868C143.115 20.2709 142.239 20.8978 141.194 21.2675C140.165 21.6211 139.008 21.798 137.722 21.798H134.467ZM137.819 13.7205H134.467V18.3017H137.674C139.892 18.3017 141.001 17.5382 141.001 16.0111C141.001 14.4841 139.94 13.7205 137.819 13.7205ZM148.758 27.1025H144.9L152.302 10.2243H155.075L162.477 27.1025H158.571L157.197 23.968H150.132L148.758 27.1025ZM155.822 20.8094L153.652 15.77L151.434 20.8094H155.822ZM180.135 27.1025H176.398V13.8411H171.118L171.021 15.7941C170.86 19.4913 170.442 22.232 169.767 24.0162C169.333 25.1897 168.739 26.0095 167.983 26.4756C167.244 26.9418 166.231 27.1749 164.945 27.1749C164.607 27.1749 164.286 27.1508 163.981 27.1025V23.6304C164.27 23.6626 164.471 23.6787 164.583 23.6787C165.435 23.6787 166.054 23.2848 166.44 22.4972C166.681 22.015 166.898 21.0907 167.091 19.7243C167.284 18.3419 167.404 15.8102 167.453 12.1291L167.477 10.2243H180.135V27.1025ZM191.602 19.3144H188.468V23.6063H191.53C193.748 23.6063 194.857 22.8749 194.857 21.4122C194.857 20.0137 193.772 19.3144 191.602 19.3144ZM184.706 10.2243H188.468V15.8182H191.65C192.647 15.8182 193.547 15.9147 194.351 16.1076C195.171 16.2844 195.918 16.5818 196.593 16.9997C197.268 17.4016 197.791 17.9803 198.16 18.7358C198.546 19.4752 198.739 20.3673 198.739 21.4122C198.739 22.4409 198.538 23.3411 198.136 24.1127C197.751 24.8682 197.204 25.4549 196.497 25.8728C195.789 26.2908 195.018 26.6042 194.182 26.8132C193.362 27.0061 192.454 27.1025 191.457 27.1025H184.706V10.2243Z" fill="black" fill-opacity="0.2"/>
<path fill-rule="evenodd" clip-rule="evenodd" d="M52.5605 10.2473L39.9451 0.00488281L18.0971 26.9144L39.0284 26.9144L52.5605 10.2473ZM17.5813 27.6148L17.5813 27.5498L17.5495 27.589L17.5813 27.6148Z" fill="#0278E6"/>
<path fill-rule="evenodd" clip-rule="evenodd" d="M21.9929 16.4676L14.1474 10.0518L0.560253 26.9077L13.5774 26.9077L21.9929 16.4676ZM0.239206 27.3465L0.239206 27.306L0.219543 27.3304L0.239206 27.3465Z" fill="#0278E6"/>
<path fill-rule="evenodd" clip-rule="evenodd" d="M60.5537 12.9408L57.3039 10.3022L43.6411 27.1303H49.0332L60.5537 12.9408Z" fill="#1D1700"/>
<path fill-rule="evenodd" clip-rule="evenodd" d="M60.5537 12.9408L57.3039 10.3022L43.6411 27.1303H49.0332L60.5537 12.9408Z" fill="black" fill-opacity="0.2"/>
</svg>
