<svg width="18" height="17" viewBox="0 0 18 17" fill="none" xmlns="http://www.w3.org/2000/svg">
<path d="M16.4283 15.5716C16.4283 16.3606 15.7887 17.0002 14.9997 17.0002C14.2108 17.0002 13.5712 16.3606 13.5712 15.5716C13.5712 14.7827 14.2108 14.1431 14.9997 14.1431C15.7887 14.1431 16.4283 14.7827 16.4283 15.5716Z" fill="#1D1700"/>
<path d="M16.4283 15.5716C16.4283 16.3606 15.7887 17.0002 14.9997 17.0002C14.2108 17.0002 13.5712 16.3606 13.5712 15.5716C13.5712 14.7827 14.2108 14.1431 14.9997 14.1431C15.7887 14.1431 16.4283 14.7827 16.4283 15.5716Z" fill="black" fill-opacity="0.2"/>
<path fill-rule="evenodd" clip-rule="evenodd" d="M14.9997 16.4288C15.4731 16.4288 15.8569 16.045 15.8569 15.5716C15.8569 15.0983 15.4731 14.7145 14.9997 14.7145C14.5264 14.7145 14.1426 15.0983 14.1426 15.5716C14.1426 16.045 14.5264 16.4288 14.9997 16.4288ZM14.9997 17.0002C15.7887 17.0002 16.4283 16.3606 16.4283 15.5716C16.4283 14.7827 15.7887 14.1431 14.9997 14.1431C14.2108 14.1431 13.5712 14.7827 13.5712 15.5716C13.5712 16.3606 14.2108 17.0002 14.9997 17.0002Z" fill="#1D1700"/>
<path fill-rule="evenodd" clip-rule="evenodd" d="M14.9997 16.4288C15.4731 16.4288 15.8569 16.045 15.8569 15.5716C15.8569 15.0983 15.4731 14.7145 14.9997 14.7145C14.5264 14.7145 14.1426 15.0983 14.1426 15.5716C14.1426 16.045 14.5264 16.4288 14.9997 16.4288ZM14.9997 17.0002C15.7887 17.0002 16.4283 16.3606 16.4283 15.5716C16.4283 14.7827 15.7887 14.1431 14.9997 14.1431C14.2108 14.1431 13.5712 14.7827 13.5712 15.5716C13.5712 16.3606 14.2108 17.0002 14.9997 17.0002Z" fill="black" fill-opacity="0.2"/>
<path d="M8.42831 15.5716C8.42831 16.3606 7.78872 17.0002 6.99974 17.0002C6.21076 17.0002 5.57117 16.3606 5.57117 15.5716C5.57117 14.7827 6.21076 14.1431 6.99974 14.1431C7.78872 14.1431 8.42831 14.7827 8.42831 15.5716Z" fill="#1D1700"/>
<path d="M8.42831 15.5716C8.42831 16.3606 7.78872 17.0002 6.99974 17.0002C6.21076 17.0002 5.57117 16.3606 5.57117 15.5716C5.57117 14.7827 6.21076 14.1431 6.99974 14.1431C7.78872 14.1431 8.42831 14.7827 8.42831 15.5716Z" fill="black" fill-opacity="0.2"/>
<path fill-rule="evenodd" clip-rule="evenodd" d="M6.99974 16.4288C7.47313 16.4288 7.85688 16.045 7.85688 15.5716C7.85688 15.0983 7.47313 14.7145 6.99974 14.7145C6.52635 14.7145 6.1426 15.0983 6.1426 15.5716C6.1426 16.045 6.52635 16.4288 6.99974 16.4288ZM6.99974 17.0002C7.78872 17.0002 8.42831 16.3606 8.42831 15.5716C8.42831 14.7827 7.78872 14.1431 6.99974 14.1431C6.21076 14.1431 5.57117 14.7827 5.57117 15.5716C5.57117 16.3606 6.21076 17.0002 6.99974 17.0002Z" fill="#1D1700"/>
<path fill-rule="evenodd" clip-rule="evenodd" d="M6.99974 16.4288C7.47313 16.4288 7.85688 16.045 7.85688 15.5716C7.85688 15.0983 7.47313 14.7145 6.99974 14.7145C6.52635 14.7145 6.1426 15.0983 6.1426 15.5716C6.1426 16.045 6.52635 16.4288 6.99974 16.4288ZM6.99974 17.0002C7.78872 17.0002 8.42831 16.3606 8.42831 15.5716C8.42831 14.7827 7.78872 14.1431 6.99974 14.1431C6.21076 14.1431 5.57117 14.7827 5.57117 15.5716C5.57117 16.3606 6.21076 17.0002 6.99974 17.0002Z" fill="black" fill-opacity="0.2"/>
<path fill-rule="evenodd" clip-rule="evenodd" d="M0.428589 1.00014C0.428589 0.684548 0.684426 0.428711 1.00002 0.428711H3.37824C4.16639 0.428711 4.85299 0.966107 5.04233 1.73118L7.15801 10.2803C7.22112 10.5353 7.44999 10.7144 7.71271 10.7144H14.2986C14.5587 10.7144 14.786 10.5388 14.8515 10.287L16.0743 5.59317C16.1686 5.23117 15.8954 4.87769 15.5213 4.87769H8.63638C8.32079 4.87769 8.06495 4.62185 8.06495 4.30626C8.06495 3.99067 8.32079 3.73483 8.63638 3.73483H15.5213C16.6436 3.73483 17.4631 4.79526 17.1802 5.88127L15.9575 10.5751C15.7608 11.3303 15.0789 11.8573 14.2986 11.8573H7.71271C6.92455 11.8573 6.23796 11.3199 6.04862 10.5548L3.93293 2.00572C3.86982 1.7507 3.64096 1.57157 3.37824 1.57157H1.00002C0.684426 1.57157 0.428589 1.31573 0.428589 1.00014Z" fill="#1D1700"/>
<path fill-rule="evenodd" clip-rule="evenodd" d="M0.428589 1.00014C0.428589 0.684548 0.684426 0.428711 1.00002 0.428711H3.37824C4.16639 0.428711 4.85299 0.966107 5.04233 1.73118L7.15801 10.2803C7.22112 10.5353 7.44999 10.7144 7.71271 10.7144H14.2986C14.5587 10.7144 14.786 10.5388 14.8515 10.287L16.0743 5.59317C16.1686 5.23117 15.8954 4.87769 15.5213 4.87769H8.63638C8.32079 4.87769 8.06495 4.62185 8.06495 4.30626C8.06495 3.99067 8.32079 3.73483 8.63638 3.73483H15.5213C16.6436 3.73483 17.4631 4.79526 17.1802 5.88127L15.9575 10.5751C15.7608 11.3303 15.0789 11.8573 14.2986 11.8573H7.71271C6.92455 11.8573 6.23796 11.3199 6.04862 10.5548L3.93293 2.00572C3.86982 1.7507 3.64096 1.57157 3.37824 1.57157H1.00002C0.684426 1.57157 0.428589 1.31573 0.428589 1.00014Z" fill="black" fill-opacity="0.2"/>
</svg>
