<svg width="14" height="14" viewBox="0 0 14 14" fill="none" xmlns="http://www.w3.org/2000/svg">
<path d="M1.5861 4.75798C0.710122 3.882 0.710121 2.46175 1.5861 1.58577C2.46208 0.709796 3.88232 0.709796 4.7583 1.58578L12.4139 9.24135C13.2899 10.1173 13.2899 11.5376 12.4139 12.4136C11.5379 13.2895 10.1177 13.2895 9.24168 12.4136L1.5861 4.75798Z" fill="#F3D8AF"/>
<path d="M9.24154 1.5861C10.1175 0.710122 11.5378 0.710121 12.4137 1.5861C13.2897 2.46208 13.2897 3.88232 12.4137 4.7583L4.75816 12.4139C3.88218 13.2899 2.46194 13.2899 1.58596 12.4139C0.709981 11.5379 0.709981 10.1177 1.58596 9.24168L9.24154 1.5861Z" fill="#F3D8AF"/>
</svg>
