<svg width="20" height="18" viewBox="0 0 20 18" fill="none" xmlns="http://www.w3.org/2000/svg">
<path fill-rule="evenodd" clip-rule="evenodd" d="M0.320007 5.13849C0.320007 2.33246 2.68066 0.104492 5.53333 0.104492C7.01485 0.104492 8.29896 0.877696 9.16485 1.57395C9.52785 1.86584 9.83294 2.15678 10.0667 2.39838C10.3004 2.15678 10.6055 1.86584 10.9685 1.57395C11.8344 0.877696 13.1185 0.104492 14.6 0.104492C17.4527 0.104492 19.8133 2.33246 19.8133 5.13849C19.8133 6.21118 19.5916 7.97241 18.3451 10.0703C17.1015 12.1634 14.8599 14.5544 10.8792 16.9285L10.8765 16.9301C10.6311 17.075 10.351 17.1508 10.0667 17.1508C9.78236 17.1508 9.50225 17.075 9.25678 16.9301L9.25413 16.9285C5.2734 14.5544 3.03186 12.1634 1.78822 10.0703C0.541731 7.97241 0.320007 6.21118 0.320007 5.13849ZM9.52769 3.8379L9.52577 3.83546L9.5125 3.81873C9.49992 3.80303 9.48 3.77849 9.45311 3.74636C9.39927 3.68205 9.31781 3.58771 9.21177 3.47336C8.9989 3.24383 8.69106 2.93812 8.31262 2.63381C7.53767 2.01068 6.55512 1.46449 5.53333 1.46449C3.3794 1.46449 1.68001 3.13489 1.68001 5.13849C1.68001 6.00706 1.85495 7.52012 2.95741 9.37559C4.06253 11.2356 6.12176 13.4765 9.94902 15.7595C9.98312 15.7794 10.0239 15.7908 10.0667 15.7908C10.1095 15.7908 10.1502 15.7794 10.1843 15.7594C14.0116 13.4765 16.0708 11.2355 17.1759 9.37559C18.2784 7.52012 18.4533 6.00706 18.4533 5.13849C18.4533 3.13489 16.7539 1.46449 14.6 1.46449C13.5782 1.46449 12.5956 2.01068 11.8207 2.63381C11.4423 2.93812 11.1344 3.24383 10.9216 3.47336C10.8155 3.58771 10.734 3.68205 10.6802 3.74636C10.6533 3.77849 10.6334 3.80303 10.6208 3.81873L10.6075 3.83546L10.6056 3.8379L10.6054 3.83819C10.4767 4.00534 10.2776 4.10328 10.0667 4.10328C9.85581 4.10328 9.65691 4.00547 9.52817 3.83853L9.52808 3.83841C9.52803 3.83834 9.52797 3.83826 9.52791 3.83819C9.52784 3.83809 9.52776 3.838 9.52769 3.8379Z" fill="#1D1700"/>
<path fill-rule="evenodd" clip-rule="evenodd" d="M0.320007 5.13849C0.320007 2.33246 2.68066 0.104492 5.53333 0.104492C7.01485 0.104492 8.29896 0.877696 9.16485 1.57395C9.52785 1.86584 9.83294 2.15678 10.0667 2.39838C10.3004 2.15678 10.6055 1.86584 10.9685 1.57395C11.8344 0.877696 13.1185 0.104492 14.6 0.104492C17.4527 0.104492 19.8133 2.33246 19.8133 5.13849C19.8133 6.21118 19.5916 7.97241 18.3451 10.0703C17.1015 12.1634 14.8599 14.5544 10.8792 16.9285L10.8765 16.9301C10.6311 17.075 10.351 17.1508 10.0667 17.1508C9.78236 17.1508 9.50225 17.075 9.25678 16.9301L9.25413 16.9285C5.2734 14.5544 3.03186 12.1634 1.78822 10.0703C0.541731 7.97241 0.320007 6.21118 0.320007 5.13849ZM9.52769 3.8379L9.52577 3.83546L9.5125 3.81873C9.49992 3.80303 9.48 3.77849 9.45311 3.74636C9.39927 3.68205 9.31781 3.58771 9.21177 3.47336C8.9989 3.24383 8.69106 2.93812 8.31262 2.63381C7.53767 2.01068 6.55512 1.46449 5.53333 1.46449C3.3794 1.46449 1.68001 3.13489 1.68001 5.13849C1.68001 6.00706 1.85495 7.52012 2.95741 9.37559C4.06253 11.2356 6.12176 13.4765 9.94902 15.7595C9.98312 15.7794 10.0239 15.7908 10.0667 15.7908C10.1095 15.7908 10.1502 15.7794 10.1843 15.7594C14.0116 13.4765 16.0708 11.2355 17.1759 9.37559C18.2784 7.52012 18.4533 6.00706 18.4533 5.13849C18.4533 3.13489 16.7539 1.46449 14.6 1.46449C13.5782 1.46449 12.5956 2.01068 11.8207 2.63381C11.4423 2.93812 11.1344 3.24383 10.9216 3.47336C10.8155 3.58771 10.734 3.68205 10.6802 3.74636C10.6533 3.77849 10.6334 3.80303 10.6208 3.81873L10.6075 3.83546L10.6056 3.8379L10.6054 3.83819C10.4767 4.00534 10.2776 4.10328 10.0667 4.10328C9.85581 4.10328 9.65691 4.00547 9.52817 3.83853L9.52808 3.83841C9.52803 3.83834 9.52797 3.83826 9.52791 3.83819C9.52784 3.83809 9.52776 3.838 9.52769 3.8379Z" fill="black" fill-opacity="0.2"/>
</svg>
