<svg width="10" height="20" viewBox="0 0 10 20" fill="none" xmlns="http://www.w3.org/2000/svg">
<path fill-rule="evenodd" clip-rule="evenodd" d="M6.79982 0.690197C5.79038 0.855376 5.08134 1.2133 4.49965 1.85126C4.00992 2.3884 3.70433 3.0186 3.5314 3.84792C3.46609 4.16117 3.45775 4.35049 3.44425 5.82605L3.42932 7.45778H2.04716H0.665009V9.11642V10.7751L2.04096 10.7846L3.41691 10.7942L3.42581 15.0513L3.43472 19.3083H5.08221H6.72971V15.0421V10.7759H8.09689C8.84885 10.7759 9.46464 10.7718 9.46534 10.7668C9.55712 10.1028 9.86929 7.50413 9.85955 7.48513C9.85187 7.47007 9.14346 7.45778 8.28532 7.45778H6.72511L6.73689 6.09953C6.74846 4.77109 6.75053 4.73653 6.83158 4.52544C6.99578 4.09784 7.3413 3.84518 7.85715 3.77554C7.99867 3.75643 8.5366 3.74028 9.05256 3.73966L9.99069 3.73853L9.98154 2.25265L9.97239 0.76677L9.51666 0.723707C8.76944 0.653078 7.1488 0.633096 6.79982 0.690197Z" fill="#FAF8F7"/>
</svg>
