<svg width="16" height="16" viewBox="0 0 16 16" fill="none" xmlns="http://www.w3.org/2000/svg">
<path fill-rule="evenodd" clip-rule="evenodd" d="M6.44939 11.5258C9.25301 11.5258 11.5258 9.25301 11.5258 6.44939C11.5258 3.64576 9.25301 1.37297 6.44939 1.37297C3.64576 1.37297 1.37297 3.64576 1.37297 6.44939C1.37297 9.25301 3.64576 11.5258 6.44939 11.5258ZM6.44939 12.8988C10.0113 12.8988 12.8988 10.0113 12.8988 6.44939C12.8988 2.88749 10.0113 0 6.44939 0C2.88749 0 0 2.88749 0 6.44939C0 10.0113 2.88749 12.8988 6.44939 12.8988Z" fill="#1D1700"/>
<path fill-rule="evenodd" clip-rule="evenodd" d="M6.44939 11.5258C9.25301 11.5258 11.5258 9.25301 11.5258 6.44939C11.5258 3.64576 9.25301 1.37297 6.44939 1.37297C3.64576 1.37297 1.37297 3.64576 1.37297 6.44939C1.37297 9.25301 3.64576 11.5258 6.44939 11.5258ZM6.44939 12.8988C10.0113 12.8988 12.8988 10.0113 12.8988 6.44939C12.8988 2.88749 10.0113 0 6.44939 0C2.88749 0 0 2.88749 0 6.44939C0 10.0113 2.88749 12.8988 6.44939 12.8988Z" fill="black" fill-opacity="0.2"/>
<path fill-rule="evenodd" clip-rule="evenodd" d="M15.0084 14.9649L11.0677 11.0241C11.0559 11.0124 11.0368 11.0124 11.0251 11.0241C11.0133 11.0359 11.0133 11.0549 11.0251 11.0667L14.9659 15.0075C14.9776 15.0192 14.9967 15.0192 15.0084 15.0075C15.0202 14.9957 15.0202 14.9766 15.0084 14.9649ZM10.5397 10.5387C10.2598 10.8185 10.2598 11.2723 10.5397 11.5521L14.4804 15.4929C14.7603 15.7727 15.214 15.7727 15.4939 15.4929C15.7737 15.213 15.7737 14.7593 15.4939 14.4795L11.5531 10.5387C11.2732 10.2588 10.8195 10.2588 10.5397 10.5387Z" fill="#1D1700"/>
<path fill-rule="evenodd" clip-rule="evenodd" d="M15.0084 14.9649L11.0677 11.0241C11.0559 11.0124 11.0368 11.0124 11.0251 11.0241C11.0133 11.0359 11.0133 11.0549 11.0251 11.0667L14.9659 15.0075C14.9776 15.0192 14.9967 15.0192 15.0084 15.0075C15.0202 14.9957 15.0202 14.9766 15.0084 14.9649ZM10.5397 10.5387C10.2598 10.8185 10.2598 11.2723 10.5397 11.5521L14.4804 15.4929C14.7603 15.7727 15.214 15.7727 15.4939 15.4929C15.7737 15.213 15.7737 14.7593 15.4939 14.4795L11.5531 10.5387C11.2732 10.2588 10.8195 10.2588 10.5397 10.5387Z" fill="black" fill-opacity="0.2"/>
</svg>
