<svg width="60" height="60" viewBox="0 0 60 60" fill="none" xmlns="http://www.w3.org/2000/svg">
<path d="M59 0H1C0.4 0 0 0.4 0 1V59C0 59.6 0.4 60 1 60H59C59.6 60 60 59.6 60 59V1C60 0.4 59.6 0 59 0ZM58 2V8H2V2H58ZM2 58V10H58V58H2Z" fill="white"/>
<path d="M8 4H4V6H8V4Z" fill="white"/>
<path d="M14 4H10V6H14V4Z" fill="white"/>
<path d="M56 4H54V6H56V4Z" fill="white"/>
<path d="M52 4H50V6H52V4Z" fill="white"/>
<path d="M54 13H42C41.4 13 41 13.4 41 14V26C41 26.6 41.4 27 42 27H54C54.6 27 55 26.6 55 26V14C55 13.4 54.6 13 54 13ZM53 25H43V15H53V25Z" fill="white"/>
<path d="M54 36H42C41.4 36 41 36.4 41 37V49C41 49.6 41.4 50 42 50H54C54.6 50 55 49.6 55 49V37C55 36.4 54.6 36 54 36ZM53 48H43V38H53V48Z" fill="white"/>
<path d="M36 36H24C23.4 36 23 36.4 23 37V49C23 49.6 23.4 50 24 50H36C36.6 50 37 49.6 37 49V37C37 36.4 36.6 36 36 36ZM35 48H25V38H35V48Z" fill="white"/>
<path d="M36 13H24C23.4 13 23 13.4 23 14V26C23 26.6 23.4 27 24 27H36C36.6 27 37 26.6 37 26V14C37 13.4 36.6 13 36 13ZM35 25H25V15H35V25Z" fill="white"/>
<path d="M27 30H23V32H27V30Z" fill="white"/>
<path d="M37 30H29V32H37V30Z" fill="white"/>
<path d="M45 30H41V32H45V30Z" fill="white"/>
<path d="M55 30H47V32H55V30Z" fill="white"/>
<path d="M45 53H41V55H45V53Z" fill="white"/>
<path d="M55 53H47V55H55V53Z" fill="white"/>
<path d="M27 53H23V55H27V53Z" fill="white"/>
<path d="M37 53H29V55H37V53Z" fill="white"/>
<path d="M11 13H5V15H11V13Z" fill="white"/>
<path d="M19 17H5V19H19V17Z" fill="white"/>
<path d="M11 40H5V42H11V40Z" fill="white"/>
<path d="M19 44H5V46H19V44Z" fill="white"/>
<path d="M7 22H5V24H7V22Z" fill="white"/>
<path d="M11 22H9V24H11V22Z" fill="white"/>
<path d="M15 22H13V24H15V22Z" fill="white"/>
<path d="M19 22H17V24H19V22Z" fill="white"/>
<path d="M7 26H5V28H7V26Z" fill="white"/>
<path d="M11 26H9V28H11V26Z" fill="white"/>
<path d="M15 26H13V28H15V26Z" fill="white"/>
<path d="M19 26H17V28H19V26Z" fill="white"/>
<path d="M7 30H5V32H7V30Z" fill="white"/>
<path d="M11 30H9V32H11V30Z" fill="white"/>
<path d="M15 30H13V32H15V30Z" fill="white"/>
<path d="M19 30H17V32H19V30Z" fill="white"/>
<path d="M7 34H5V36H7V34Z" fill="white"/>
<path d="M11 34H9V36H11V34Z" fill="white"/>
<path d="M15 34H13V36H15V34Z" fill="white"/>
<path d="M19 34H17V36H19V34Z" fill="white"/>
<path d="M7 49H5V51H7V49Z" fill="white"/>
<path d="M11 49H9V51H11V49Z" fill="white"/>
<path d="M15 49H13V51H15V49Z" fill="white"/>
<path d="M19 49H17V51H19V49Z" fill="white"/>
<path d="M7 53H5V55H7V53Z" fill="white"/>
<path d="M11 53H9V55H11V53Z" fill="white"/>
<path d="M15 53H13V55H15V53Z" fill="white"/>
<path d="M19 53H17V55H19V53Z" fill="white"/>
</svg>
