<svg width="19" height="17" viewBox="0 0 19 17" fill="none" xmlns="http://www.w3.org/2000/svg">
<path fill-rule="evenodd" clip-rule="evenodd" d="M1 16.0004L0.61005 15.4433C0.302385 15.6587 0.227561 16.0827 0.442927 16.3903C0.658212 16.6979 1.08198 16.7728 1.38961 16.5577L1.39322 16.5552L1.41507 16.5405C1.43576 16.5267 1.46863 16.5052 1.51327 16.4769C1.60258 16.4205 1.73888 16.3374 1.91899 16.2365C2.27942 16.0347 2.81401 15.7623 3.49745 15.4889C4.86553 14.9417 6.81986 14.3947 9.16327 14.3947C11.5067 14.3947 13.461 14.9417 14.8291 15.4889C15.5125 15.7623 16.0471 16.0347 16.4075 16.2365C16.5877 16.3374 16.724 16.4205 16.8133 16.4769C16.8579 16.5052 16.8908 16.5267 16.9115 16.5405L16.9333 16.5552L16.9366 16.5575C16.9365 16.5574 16.9366 16.5575 16.9366 16.5575C16.9366 16.5575 16.9374 16.558 16.9375 16.5581C17.245 16.7727 17.6684 16.6977 17.8836 16.3903C18.099 16.0827 18.0242 15.6587 17.7165 15.4433L17.3519 15.9641C17.7165 15.4433 17.7167 15.4435 17.7165 15.4433L17.7143 15.4418L17.711 15.4395L17.7007 15.4324L17.6659 15.4089C17.6363 15.3892 17.5943 15.3617 17.5401 15.3274C17.4317 15.2589 17.2746 15.1634 17.0721 15.0499C16.6672 14.8232 16.0793 14.5242 15.3342 14.2262C13.8451 13.6305 11.7178 13.0347 9.16327 13.0347C6.60872 13.0347 4.48142 13.6305 2.99236 14.2262C2.24723 14.5242 1.65937 14.8232 1.25449 15.0499C1.05195 15.1634 0.894879 15.2589 0.786483 15.3274C0.732274 15.3617 0.690205 15.3892 0.660675 15.4089L0.625821 15.4324L0.615533 15.4395L0.612188 15.4418L0.610968 15.4427C0.610751 15.4428 0.61005 15.4433 1 16.0004Z" fill="#1D1700"/>
<path fill-rule="evenodd" clip-rule="evenodd" d="M1 16.0004L0.61005 15.4433C0.302385 15.6587 0.227561 16.0827 0.442927 16.3903C0.658212 16.6979 1.08198 16.7728 1.38961 16.5577L1.39322 16.5552L1.41507 16.5405C1.43576 16.5267 1.46863 16.5052 1.51327 16.4769C1.60258 16.4205 1.73888 16.3374 1.91899 16.2365C2.27942 16.0347 2.81401 15.7623 3.49745 15.4889C4.86553 14.9417 6.81986 14.3947 9.16327 14.3947C11.5067 14.3947 13.461 14.9417 14.8291 15.4889C15.5125 15.7623 16.0471 16.0347 16.4075 16.2365C16.5877 16.3374 16.724 16.4205 16.8133 16.4769C16.8579 16.5052 16.8908 16.5267 16.9115 16.5405L16.9333 16.5552L16.9366 16.5575C16.9365 16.5574 16.9366 16.5575 16.9366 16.5575C16.9366 16.5575 16.9374 16.558 16.9375 16.5581C17.245 16.7727 17.6684 16.6977 17.8836 16.3903C18.099 16.0827 18.0242 15.6587 17.7165 15.4433L17.3519 15.9641C17.7165 15.4433 17.7167 15.4435 17.7165 15.4433L17.7143 15.4418L17.711 15.4395L17.7007 15.4324L17.6659 15.4089C17.6363 15.3892 17.5943 15.3617 17.5401 15.3274C17.4317 15.2589 17.2746 15.1634 17.0721 15.0499C16.6672 14.8232 16.0793 14.5242 15.3342 14.2262C13.8451 13.6305 11.7178 13.0347 9.16327 13.0347C6.60872 13.0347 4.48142 13.6305 2.99236 14.2262C2.24723 14.5242 1.65937 14.8232 1.25449 15.0499C1.05195 15.1634 0.894879 15.2589 0.786483 15.3274C0.732274 15.3617 0.690205 15.3892 0.660675 15.4089L0.625821 15.4324L0.615533 15.4395L0.612188 15.4418L0.610968 15.4427C0.610751 15.4428 0.61005 15.4433 1 16.0004Z" fill="black" fill-opacity="0.2"/>
<path fill-rule="evenodd" clip-rule="evenodd" d="M9.16411 10.3951C11.6591 10.3951 13.6817 8.37253 13.6817 5.87755C13.6817 3.38258 11.6591 1.36 9.16411 1.36C6.66914 1.36 4.64656 3.38258 4.64656 5.87755C4.64656 8.37253 6.66914 10.3951 9.16411 10.3951ZM9.16411 11.7551C12.4102 11.7551 15.0417 9.12363 15.0417 5.87755C15.0417 2.63147 12.4102 0 9.16411 0C5.91803 0 3.28656 2.63147 3.28656 5.87755C3.28656 9.12363 5.91803 11.7551 9.16411 11.7551Z" fill="#1D1700"/>
<path fill-rule="evenodd" clip-rule="evenodd" d="M9.16411 10.3951C11.6591 10.3951 13.6817 8.37253 13.6817 5.87755C13.6817 3.38258 11.6591 1.36 9.16411 1.36C6.66914 1.36 4.64656 3.38258 4.64656 5.87755C4.64656 8.37253 6.66914 10.3951 9.16411 10.3951ZM9.16411 11.7551C12.4102 11.7551 15.0417 9.12363 15.0417 5.87755C15.0417 2.63147 12.4102 0 9.16411 0C5.91803 0 3.28656 2.63147 3.28656 5.87755C3.28656 9.12363 5.91803 11.7551 9.16411 11.7551Z" fill="black" fill-opacity="0.2"/>
</svg>
