<svg width="22" height="14" viewBox="0 0 22 14" fill="none" xmlns="http://www.w3.org/2000/svg">
<path fill-rule="evenodd" clip-rule="evenodd" d="M6.93191 8.42811C5.44386 6.98054 4.51829 4.5958 4.261 1.54695L4.1694 0.461182H2.3659C1.37387 0.461182 0.535812 0.487635 0.503438 0.520142C0.383151 0.640432 0.660046 3.41277 0.902724 4.51683C2.15639 10.2215 5.82999 13.5249 11.2771 13.8455L12.626 13.9249V11.5301V9.13537L13.1195 9.21986C13.8517 9.34502 15.1859 9.99201 15.8786 10.5578C16.5318 11.0911 17.643 12.6755 17.891 13.4271L18.0422 13.8853H19.9568H21.8712L21.7858 13.4575C21.6634 12.8448 21.0251 11.5289 20.4178 10.6374C19.7436 9.64798 18.5794 8.50404 17.4734 7.7444L16.596 7.14163L17.4076 6.4932C18.9258 5.28029 20.2234 3.47818 20.7765 1.81438C20.996 1.15434 21.1286 0.812473 21.0116 0.639867C20.8753 0.438848 20.4004 0.467395 19.3299 0.490266L17.6111 0.526986L17.2486 1.38665C16.7704 2.52099 15.9467 3.71665 15.1661 4.4101C14.5702 4.9393 13.1509 5.72513 12.7905 5.72539C12.6645 5.72552 12.626 5.11144 12.626 3.09335V0.461182H10.8494H9.07271V5.0763V9.69155L8.7766 9.60324C8.26559 9.4507 7.44714 8.9294 6.93191 8.42811Z" fill="#FAF8F7"/>
</svg>
